<?xml version="1.0" encoding="utf-8"?><svg viewBox="0 0 150 35" xmlns="http://www.w3.org/2000/svg" xmlns:xlink="http://www.w3.org/1999/xlink"><style>:root>svg{display:none}:root>svg:target{display:block}</style><svg fill="none" viewBox="0 0 8 16" id="Facebook" xmlns="http://www.w3.org/2000/svg"><path d="M2 5.333H0V8h2v8h3.333V8h2.4L8 5.333H5.333V4.2c0-.6.134-.867.734-.867H8V0H5.467C3.067 0 2 1.067 2 3.067v2.266z" fill="#46A358" fill-opacity=".6"/></svg><svg fill="none" viewBox="0 0 16 16" id="Instagram" xmlns="http://www.w3.org/2000/svg"><path d="M8 1.467c2.133 0 2.4 0 3.267.066 2.2.067 3.2 1.134 3.266 3.267.067.867.067 1.067.067 3.2s0 2.4-.067 3.2c-.066 2.133-1.133 3.2-3.266 3.267-.867.066-1.067.066-3.267.066-2.133 0-2.4 0-3.2-.066-2.2-.067-3.2-1.134-3.267-3.267-.066-.867-.066-1.067-.066-3.2s0-2.4.066-3.2C1.6 2.667 2.667 1.6 4.8 1.533c.8-.066 1.067-.066 3.2-.066zM8 0C5.8 0 5.533 0 4.733.067 1.8.2.2 1.8.067 4.733 0 5.533 0 5.8 0 8s0 2.467.067 3.267C.2 14.2 1.8 15.8 4.733 15.933 5.533 16 5.8 16 8 16s2.467 0 3.267-.067C14.2 15.8 15.8 14.2 15.933 11.267 16 10.467 16 10.2 16 8s0-2.467-.067-3.267C15.8 1.8 14.2.2 11.267.067 10.467 0 10.2 0 8 0zm0 3.867C5.733 3.867 3.867 5.733 3.867 8S5.733 12.133 8 12.133 12.133 10.267 12.133 8 10.267 3.867 8 3.867zm0 6.8A2.675 2.675 0 015.333 8c0-1.467 1.2-2.667 2.667-2.667 1.467 0 2.667 1.2 2.667 2.667 0 1.467-1.2 2.667-2.667 2.667zM12.267 2.8c-.534 0-.934.4-.934.933 0 .534.4.934.934.934.533 0 .933-.4.933-.934 0-.533-.4-.933-.933-.933z" fill="#46A358" fill-opacity=".6"/></svg><svg fill="none" viewBox="0 0 16 16" id="Linkedin" xmlns="http://www.w3.org/2000/svg"><path d="M3.333 1.667a1.65 1.65 0 01-1.666 1.666A1.65 1.65 0 010 1.667 1.65 1.65 0 011.667 0a1.65 1.65 0 011.666 1.667zm0 3H0v10.666h3.333V4.667zm5.334 0H5.333v10.666h3.334v-5.6c0-3.133 4-3.4 4 0v5.6H16V8.6c0-5.267-5.933-5.067-7.333-2.467V4.667z" fill="#46A358" fill-opacity=".6"/></svg><svg fill="none" viewBox="0 0 16 14" id="Twitter" xmlns="http://www.w3.org/2000/svg"><path d="M5.032 13.004c6.038 0 9.34-5.003 9.34-9.34 0-.143-.003-.284-.01-.425A6.681 6.681 0 0016 1.54a6.549 6.549 0 01-1.885.517A3.295 3.295 0 0015.559.24a6.58 6.58 0 01-2.085.797A3.283 3.283 0 007.88 4.031 9.32 9.32 0 011.115.6 3.28 3.28 0 002.13 4.983a3.26 3.26 0 01-1.487-.41v.042a3.284 3.284 0 002.633 3.218 3.286 3.286 0 01-1.483.056 3.287 3.287 0 003.067 2.28A6.587 6.587 0 010 11.53a9.293 9.293 0 005.032 1.475z" fill="#46A358" fill-opacity=".6"/></svg><svg fill="none" viewBox="0 0 19 14" id="Union" xmlns="http://www.w3.org/2000/svg"><path fill-rule="evenodd" clip-rule="evenodd" d="M15.165 4.43h0zm-10.84-.073c2.593-.161 7.423-.161 10.017 0v.007c.063.633.088 1.477.088 2.655 0 1.163-.025 2.008-.086 2.646-2.648.105-7.373.105-10.021 0-.062-.632-.087-1.474-.087-2.646 0-1.178.025-2.022.088-2.655v-.007zM15.241 9.61l-.005.001h.005zM3.498 9.608H3.5h-.003zM0 7.019c0 4.822.389 6.611 3.422 6.844 2.8.156 9.022.156 11.822 0 3.033-.155 3.422-2.022 3.422-6.844 0-4.822-.389-6.61-3.422-6.844-2.8-.233-9.022-.233-11.822 0C.39.408 0 2.197 0 7.019zm3.498-2.588L3.5 4.43h-.003zm6.284 4.308a1.923 1.923 0 110-3.44c1.417.709 1.417 2.731 0 3.44z" fill="#46A358" fill-opacity=".6"/></svg><svg fill="none" viewBox="0 0 28 28" id="accept" xmlns="http://www.w3.org/2000/svg"><g filter="url(#ffilter0_d_36457_310)" stroke="#46A358" stroke-width="1.5" stroke-linecap="round" stroke-linejoin="round"><path d="M18.62 7.516s-2.674 3.21-4.63 3.21c-1.957 0-4.662-3.21-4.662-3.21"/><path clip-rule="evenodd" d="M6.043 9.974c0-5.698 1.985-7.597 7.937-7.597s7.936 1.899 7.936 7.597-1.984 7.597-7.936 7.597-7.937-1.9-7.937-7.597z"/></g><defs><filter id="ffilter0_d_36457_310" x="0" y="0" width="28" height="28" filterUnits="userSpaceOnUse" color-interpolation-filters="sRGB"><feOffset dy="4"/><feGaussianBlur stdDeviation="2"/><feComposite in2="hardAlpha" operator="out"/><feColorMatrix values="0 0 0 0 0 0 0 0 0 0 0 0 0 0 0 0 0 0 0.25 0"/><feBlend in2="BackgroundImageFix" result="effect1_dropShadow_36457_310"/><feBlend in="SourceGraphic" in2="effect1_dropShadow_36457_310" result="shape"/></filter></defs></svg><svg fill="none" viewBox="0 0 20 20" id="call" xmlns="http://www.w3.org/2000/svg"><path d="M11.96 2.292a6.643 6.643 0 015.868 5.86M11.96 5.244a3.689 3.689 0 012.917 2.917" stroke="#46A358" stroke-width="1.5" stroke-linecap="round" stroke-linejoin="round"/><path clip-rule="evenodd" d="M6.417 13.582C.67 7.834 1.487 5.201 2.092 4.352c.078-.136 1.997-3.009 4.053-1.324 5.106 4.205-1.357 3.61 2.93 7.898 4.287 4.287 3.692-2.176 7.897 2.928 1.685 2.058-1.188 3.976-1.324 4.053-.848.607-3.482 1.424-9.23-4.325z" stroke="#46A358" stroke-width="1.5" stroke-linecap="round" stroke-linejoin="round"/></svg><svg fill="none" viewBox="0 0 20 20" id="location" xmlns="http://www.w3.org/2000/svg"><path clip-rule="evenodd" d="M12.092 8.925a2.083 2.083 0 10-4.167 0 2.083 2.083 0 004.167 0z" stroke="#46A358" stroke-width="1.5" stroke-linecap="round" stroke-linejoin="round"/><path clip-rule="evenodd" d="M10 17.5c-2.415 0-6.25-4.201-6.25-8.668C3.75 5.335 6.548 2.5 10 2.5s6.25 2.835 6.25 6.332c0 4.467-3.835 8.668-6.25 8.668z" stroke="#46A358" stroke-width="1.5" stroke-linecap="round" stroke-linejoin="round"/></svg><svg fill="none" viewBox="0 0 20 20" id="login" xmlns="http://www.w3.org/2000/svg"><path d="M18.16 10.1H8.126M15.721 7.67l2.44 2.43-2.44 2.43M13.634 6.358c-.275-2.983-1.392-4.066-5.833-4.066-5.918 0-5.918 1.925-5.918 7.708s0 7.708 5.918 7.708c4.441 0 5.558-1.083 5.833-4.066" stroke="#fff" stroke-width="1.5" stroke-linecap="round" stroke-linejoin="round"/></svg><svg fill="none" viewBox="0 0 150 35" id="logo" xmlns="http://www.w3.org/2000/svg"><g clip-path="url(#jclip0_2_71)" fill="#46A358"><path d="M17.15 0C7.677 0 0 7.677 0 17.15c0 8.87 6.735 16.168 15.371 17.057-.521-4.294-.327-7.807.336-10.694-.372-1.79-1.217-4.443-3.134-6.327 0 0 1.262 1.892 1.945 4.435 0 .005.004.009.004.013a13.036 13.036 0 01.364 1.908c-9.69-1.189-11.757-9.885-11.53-13.164 10.309.57 12.42 7.451 12.727 11.72 3.376-11.057 14.101-11.696 14.987-11.72.384 8.498-5.92 15.125-13.455 15.703.049-.23.105-.461.162-.688.016-.068.036-.133.056-.202.045-.161.09-.323.142-.485l.064-.21c.057-.178.118-.352.178-.53.017-.04.029-.08.045-.121.077-.21.157-.412.238-.614.008-.017.012-.037.02-.053h.005c1.932-4.674 5.498-7.734 5.498-7.734-6.998 4.043-8.179 14.554-8.365 18.78.493.044.987.076 1.492.076 9.473 0 17.15-7.677 17.15-17.15C34.3 7.677 26.623 0 17.15 0zM46.704 10.745c2.268 0 4.12.975 5.32 2.754l-2.248 1.912c-.804-1.124-1.779-1.706-3.129-1.706-2.078 0-3.372 1.366-3.372 3.448 0 2.119 1.367 3.542 3.562 3.542 1.18 0 2.119-.412 2.717-1.104v-.582h-2.887v-2.773h6.11v3.897c-.583 1.03-1.408 1.856-2.475 2.49-1.067.619-2.268.938-3.598.938-3.712.057-6.78-2.83-6.728-6.408-.056-3.557 3.016-6.464 6.728-6.408zM61.958 23.332l-2.79-3.841h-1.33v3.84h-3.222V10.969h4.851c2.753 0 4.779 1.686 4.779 4.254 0 1.516-.732 2.773-1.949 3.52l3.259 4.59h-3.598zm-4.124-6.651h1.65c.897 0 1.479-.582 1.479-1.46 0-.877-.582-1.443-1.48-1.443h-1.65v2.903zM66.833 10.968h8.58v2.903h-5.358v1.706h3.821v2.697h-3.82v2.155h5.583v2.903h-8.806V10.968zM77.644 10.968h8.58v2.903h-5.358v1.706h3.82v2.697h-3.82v2.155h5.584v2.903h-8.806V10.968zM99.42 10.968v12.59h-1.032l-6.707-6.501v6.274h-3.222v-12.59h1.03l6.708 6.409v-6.182h3.222zM103.264 19.135c.732.974 1.5 1.593 2.753 1.593.845 0 1.274-.3 1.274-.902 0-.541-.283-.711-1.258-1.144l-1.273-.562c-2.042-.901-3.129-2.062-3.129-3.727 0-2.192 1.799-3.655 4.326-3.655 2.041 0 3.485.974 4.233 2.49l-2.155 1.65c-.599-.898-1.161-1.31-2.042-1.31-.675 0-1.104.263-1.104.788 0 .45.263.696 1.068 1.011l1.423.598c2.155.902 3.165 1.986 3.165 3.728 0 2.397-1.969 3.86-4.536 3.86-2.227 0-4.027-1.066-4.928-2.773l2.183-1.645zM112.393 10.968h3.222v4.516h4.516v-4.516h3.222v12.364h-3.222v-4.945h-4.516v4.945h-3.222V10.968zM131.843 10.742c3.598-.077 6.764 2.866 6.687 6.408.073 3.578-3.089 6.465-6.687 6.408-3.614.056-6.727-2.83-6.65-6.408-.077-3.542 3.036-6.48 6.65-6.408zm.016 2.96c-1.985 0-3.371 1.406-3.371 3.448 0 1.03.319 1.872.938 2.51.618.62 1.443.939 2.433.939 1.913 0 3.372-1.387 3.372-3.45.004-2.04-1.459-3.448-3.372-3.448zM140.374 10.968h4.852c2.753 0 4.778 1.686 4.778 4.254 0 2.53-2.078 4.269-4.778 4.269h-1.63v3.84h-3.222V10.969zm4.868 5.713c.897 0 1.479-.582 1.479-1.46 0-.877-.582-1.443-1.479-1.443h-1.65v2.903h1.65z"/></g><defs><clipPath id="jclip0_2_71"><path fill="#fff" d="M0 0h150v34.3H0z"/></clipPath></defs></svg><svg fill="none" viewBox="0 0 25 24" id="market-cart" xmlns="http://www.w3.org/2000/svg"><path d="M17.157 20.25H9.892a5.631 5.631 0 01-5.625-5.625V8.86A8.529 8.529 0 00.423 1.72.937.937 0 111.455.155 10.42 10.42 0 014.74 3.632c.172.193 1.561 1.665 3.838 1.665h10.796c2.945-.055 5.25 2.9 4.48 5.744l-1.242 4.953a5.618 5.618 0 01-5.456 4.256zM5.905 6.642c.156.72.237 1.463.237 2.217v5.766a3.754 3.754 0 003.75 3.75h7.265a3.745 3.745 0 003.637-2.837l1.243-4.954c.457-1.689-.913-3.445-2.662-3.412H8.579a6.99 6.99 0 01-2.674-.53zm3.518 16.186c0-.647-.525-1.172-1.172-1.172-1.555.062-1.554 2.283 0 2.344.647 0 1.172-.525 1.172-1.172zm9.328 0c0-.647-.525-1.172-1.172-1.172-1.555.062-1.553 2.283 0 2.344.647 0 1.172-.525 1.172-1.172zm1.561-12.844a.938.938 0 00-.937-.937H8.955c-1.245.05-1.244 1.826 0 1.875h10.42c.517 0 .937-.42.937-.938z" fill="#3D3D3D"/></svg><svg fill="none" viewBox="0 0 20 20" id="search" xmlns="http://www.w3.org/2000/svg"><path d="M14.573 16.003c-3.998 3.183-9.585 2.303-12.545-1.349-2.856-3.525-2.677-8.61.421-11.83C5.651-.5 10.685-.944 14.335 1.785a8.903 8.903 0 012.92 3.724 8.83 8.83 0 01.611 4.712c-.22 1.617-.866 3.057-1.916 4.402.085.055.175.095.24.16 1.155 1.15 2.305 2.302 3.46 3.451.273.272.409.59.328.972a.994.994 0 01-1.648.532c-.272-.244-.523-.514-.782-.772l-2.844-2.842c-.039-.038-.08-.073-.131-.12zm1.387-7.016c.01-3.86-3.107-6.98-6.977-6.986A6.965 6.965 0 001.99 8.948a6.983 6.983 0 006.977 7.017c3.844.018 6.982-3.115 6.992-6.978z" fill="#3D3D3D"/></svg></svg>